<?xml version="1.0" encoding="UTF-8" standalone="no"?>
<svg
   xmlns:dc="http://purl.org/dc/elements/1.1/"
   xmlns:cc="http://creativecommons.org/ns#"
   xmlns:rdf="http://www.w3.org/1999/02/22-rdf-syntax-ns#"
   xmlns:svg="http://www.w3.org/2000/svg"
   xmlns="http://www.w3.org/2000/svg"
   xmlns:sodipodi="http://sodipodi.sourceforge.net/DTD/sodipodi-0.dtd"
   xmlns:inkscape="http://www.inkscape.org/namespaces/inkscape"
   sodipodi:docname="quacs_square_white_maskable.svg"
   inkscape:version="1.0 (4035a4fb49, 2020-05-01)"
   id="svg1628"
   version="1.1"
   viewBox="0 0 29.813892 29.813892"
   height="112.68243"
   width="112.68243"
   inkscape:export-filename="/home/eli/documents/quacs/public/img/icons/android-chrome-512x512.png"
   inkscape:export-xdpi="545.24915"
   inkscape:export-ydpi="545.24915">
  <defs
     id="defs1622" />
  <sodipodi:namedview
     inkscape:window-maximized="0"
     inkscape:window-y="0"
     inkscape:window-x="0"
     inkscape:window-height="1059"
     inkscape:window-width="1918"
     fit-margin-bottom="0"
     fit-margin-right="0"
     fit-margin-left="0"
     fit-margin-top="0"
     showgrid="false"
     inkscape:document-rotation="0"
     inkscape:current-layer="layer1"
     inkscape:document-units="mm"
     inkscape:cy="61.296873"
     inkscape:cx="61.139786"
     inkscape:zoom="5.5613313"
     inkscape:pageshadow="2"
     inkscape:pageopacity="0.0"
     borderopacity="1.0"
     bordercolor="#666666"
     pagecolor="#ffffff"
     id="base"
     units="px" />
  <metadata
     id="metadata1625">
    <rdf:RDF>
      <cc:Work
         rdf:about="">
        <dc:format>image/svg+xml</dc:format>
        <dc:type
           rdf:resource="http://purl.org/dc/dcmitype/StillImage" />
        <dc:title></dc:title>
      </cc:Work>
    </rdf:RDF>
  </metadata>
  <g
     transform="translate(-161.18754,-73.811376)"
     id="layer1"
     inkscape:groupmode="layer"
     inkscape:label="Layer 1">
    <g
       transform="translate(2.9813894,2.9813896)"
       id="g186">
      <rect
         y="78.053139"
         x="165.79211"
         height="15.334363"
         width="10.350746"
         id="rect900"
         style="fill:#ffffff;stroke-width:2.98979" />
      <path
         inkscape:export-filename="/home/eli/Downloads/test.svg.png"
         sodipodi:nodetypes="ccccccccc"
         inkscape:export-ydpi="4827.9609"
         inkscape:export-xdpi="4827.9609"
         style="fill:#ffb300;stroke:#ffb300;stroke-width:0px"
         d="m 176.6636,91.853458 c 0,0 5.08776,1.097189 7.04394,0.138741 1.95674,-0.958232 0.38201,-1.763542 -0.51286,-1.920285 -0.89538,-0.156433 -2.27872,-0.209439 -2.27872,-0.209439 0,0 2.21409,-0.859328 3.26066,-2.424816 1.04713,-1.565273 1.19513,-3.648209 0.13999,-3.52398 -1.05544,0.123727 -3.92392,1.269983 -5.12838,1.379307 -1.20417,0.109564 -0.80745,2.977901 -0.80745,2.977901 z"
         id="path889" />
      <path
         d="m 170.76839,75.63762 a 10.106289,9.6953919 82.506948 0 0 -1.19631,0.07906 10.106289,9.6953919 82.506948 0 0 -8.29458,11.284583 10.106289,9.6953919 82.506948 0 0 10.9306,8.755538 10.106289,9.6953919 82.506948 0 0 8.29458,-11.284066 10.106289,9.6953919 82.506948 0 0 -9.73429,-8.83512 z m -0.15916,3.319694 c 1.71154,0 3.00235,0.384675 3.87263,1.153418 0.88478,0.754238 1.32705,1.747807 1.32705,2.980697 0,2.320733 -1.63898,3.807487 -4.91701,4.460193 l -2.19728,0.435115 c -0.24658,-0.130541 -0.47852,-0.362992 -0.69609,-0.696598 -0.21757,-0.34811 -0.32659,-0.753867 -0.32659,-1.218013 0,-0.449643 0.11622,-0.783404 0.3483,-1.000973 0.24658,-0.232073 0.60194,-0.405895 1.06608,-0.521932 l 1.69706,-0.413411 c 0.72522,-0.18856 1.08779,-0.536721 1.08779,-1.044381 0,-0.275587 -0.13783,-0.515239 -0.41342,-0.718303 -0.26108,-0.203064 -0.71775,-0.304374 -1.37046,-0.304374 -0.59468,0 -1.15318,0.07971 -1.67535,0.239262 -0.52216,0.145046 -0.94283,0.318868 -1.26193,0.521932 -0.24658,-0.188559 -0.45692,-0.413295 -0.63097,-0.674377 -0.17406,-0.275587 -0.26097,-0.601633 -0.26097,-0.978752 0,-0.377119 0.10851,-0.703681 0.32608,-0.979268 0.21757,-0.290092 0.51482,-0.522027 0.89193,-0.696082 0.39163,-0.188559 0.84882,-0.326384 1.37098,-0.413411 0.53667,-0.08703 1.12397,-0.130742 1.76217,-0.130742 z m -0.24392,9.738941 a 2.0407312,2.0407312 0 0 1 2.04071,2.040702 2.0407312,2.0407312 0 0 1 -2.04071,2.040702 2.0407312,2.0407312 0 0 1 -2.0407,-2.040702 2.0407312,2.0407312 0 0 1 2.0407,-2.040702 z"
         style="fill:#ffb300;stroke-width:0.264583"
         id="ellipse891"
         inkscape:export-ydpi="4827.9609"
         inkscape:export-xdpi="4827.9609"
         inkscape:export-filename="/home/eli/Downloads/test.svg.png" />
    </g>
  </g>
</svg>
