<svg xmlns="http://www.w3.org/2000/svg" width="384" height="384" viewBox="0 0 384 384" shape-rendering="crispEdges">
<rect width="384" height="384" fill="#0b0b1e"/>
<g fill="#22224a">
<rect x="136" y="164" width="4" height="4"/>
<rect x="132" y="168" width="12" height="4"/>
<rect x="128" y="172" width="20" height="4"/>
<rect x="336" y="176" width="4" height="4"/>
<rect x="124" y="176" width="28" height="4"/>
<rect x="116" y="180" width="44" height="4"/>
<rect x="332" y="180" width="12" height="4"/>
<rect x="112" y="184" width="52" height="4"/>
<rect x="328" y="184" width="20" height="4"/>
<rect x="108" y="188" width="60" height="4"/>
<rect x="324" y="188" width="28" height="4"/>
<rect x="32" y="188" width="4" height="4"/>
<rect x="28" y="192" width="12" height="4"/>
<rect x="316" y="192" width="44" height="4"/>
<rect x="104" y="192" width="68" height="4"/>
<rect x="96" y="196" width="84" height="4"/>
<rect x="312" y="196" width="52" height="4"/>
<rect x="24" y="196" width="20" height="4"/>
<rect x="240" y="200" width="4" height="4"/>
<rect x="308" y="200" width="60" height="4"/>
<rect x="92" y="200" width="92" height="4"/>
<rect x="20" y="200" width="28" height="4"/>
<rect x="88" y="204" width="100" height="4"/>
<rect x="304" y="204" width="68" height="4"/>
<rect x="12" y="204" width="44" height="4"/>
<rect x="236" y="204" width="12" height="4"/>
<rect x="84" y="208" width="108" height="4"/>
<rect x="8" y="208" width="52" height="4"/>
<rect x="232" y="208" width="20" height="4"/>
<rect x="296" y="208" width="84" height="4"/>
<rect x="228" y="212" width="28" height="4"/>
<rect x="76" y="212" width="124" height="4"/>
<rect x="292" y="212" width="92" height="4"/>
<rect x="4" y="212" width="60" height="4"/>
<rect x="288" y="216" width="96" height="4"/>
<rect x="72" y="216" width="132" height="4"/>
<rect x="220" y="216" width="44" height="4"/>
<rect x="0" y="216" width="68" height="4"/>
<rect x="0" y="220" width="208" height="4"/>
<rect x="216" y="220" width="52" height="4"/>
<rect x="284" y="220" width="100" height="4"/>
<rect x="0" y="224" width="272" height="4"/>
<rect x="276" y="224" width="108" height="4"/>
<rect x="0" y="228" width="384" height="12"/>
</g>
<g fill="#7a1f3d">
<rect x="0" y="240" width="384" height="4"/>
<rect x="188" y="244" width="12" height="4"/>
<rect x="184" y="248" width="20" height="4"/>
<rect x="0" y="252" width="384" height="4"/>
<rect x="176" y="256" width="8" height="4"/>
<rect x="188" y="256" width="4" height="4"/>
<rect x="196" y="256" width="4" height="4"/>
<rect x="204" y="256" width="8" height="4"/>
<rect x="0" y="260" width="384" height="4"/>
<rect x="208" y="264" width="4" height="4"/>
<rect x="220" y="264" width="4" height="4"/>
<rect x="176" y="264" width="4" height="4"/>
<rect x="164" y="264" width="4" height="4"/>
<rect x="188" y="264" width="4" height="4"/>
<rect x="196" y="264" width="4" height="4"/>
<rect x="200" y="268" width="4" height="4"/>
<rect x="224" y="268" width="4" height="4"/>
<rect x="160" y="268" width="4" height="4"/>
<rect x="212" y="268" width="4" height="4"/>
<rect x="184" y="268" width="4" height="4"/>
<rect x="172" y="268" width="4" height="4"/>
<rect x="0" y="272" width="384" height="4"/>
<rect x="216" y="276" width="4" height="4"/>
<rect x="232" y="276" width="4" height="4"/>
<rect x="152" y="276" width="4" height="4"/>
<rect x="168" y="276" width="4" height="4"/>
<rect x="148" y="280" width="4" height="4"/>
<rect x="236" y="280" width="4" height="4"/>
<rect x="200" y="276" width="4" height="12"/>
<rect x="184" y="276" width="4" height="12"/>
<rect x="220" y="280" width="4" height="8"/>
<rect x="164" y="280" width="4" height="8"/>
<rect x="240" y="284" width="4" height="4"/>
<rect x="144" y="284" width="4" height="4"/>
<rect x="0" y="288" width="384" height="4"/>
<rect x="136" y="292" width="4" height="4"/>
<rect x="248" y="292" width="4" height="4"/>
<rect x="156" y="292" width="4" height="8"/>
<rect x="228" y="292" width="4" height="8"/>
<rect x="256" y="296" width="4" height="4"/>
<rect x="128" y="296" width="4" height="4"/>
<rect x="180" y="292" width="4" height="12"/>
<rect x="204" y="292" width="4" height="12"/>
<rect x="260" y="300" width="4" height="4"/>
<rect x="232" y="300" width="4" height="4"/>
<rect x="152" y="300" width="4" height="4"/>
<rect x="124" y="300" width="4" height="4"/>
<rect x="208" y="304" width="4" height="4"/>
<rect x="176" y="304" width="4" height="4"/>
<rect x="148" y="304" width="4" height="4"/>
<rect x="264" y="304" width="4" height="4"/>
<rect x="236" y="304" width="4" height="4"/>
<rect x="120" y="304" width="4" height="4"/>
<rect x="0" y="308" width="384" height="4"/>
<rect x="272" y="312" width="4" height="4"/>
<rect x="112" y="312" width="4" height="4"/>
<rect x="240" y="312" width="4" height="4"/>
<rect x="144" y="312" width="4" height="4"/>
<rect x="276" y="316" width="4" height="4"/>
<rect x="108" y="316" width="4" height="4"/>
<rect x="208" y="312" width="4" height="12"/>
<rect x="176" y="312" width="4" height="12"/>
<rect x="244" y="316" width="4" height="8"/>
<rect x="140" y="316" width="4" height="8"/>
<rect x="280" y="320" width="4" height="4"/>
<rect x="104" y="320" width="4" height="4"/>
<rect x="284" y="324" width="4" height="4"/>
<rect x="136" y="324" width="4" height="4"/>
<rect x="248" y="324" width="4" height="4"/>
<rect x="100" y="324" width="4" height="4"/>
<rect x="212" y="324" width="4" height="8"/>
<rect x="172" y="324" width="4" height="8"/>
<rect x="288" y="328" width="4" height="4"/>
<rect x="252" y="328" width="4" height="4"/>
<rect x="96" y="328" width="4" height="4"/>
<rect x="132" y="328" width="4" height="4"/>
<rect x="0" y="332" width="384" height="4"/>
<rect x="256" y="336" width="4" height="4"/>
<rect x="128" y="336" width="4" height="4"/>
<rect x="84" y="336" width="4" height="4"/>
<rect x="300" y="336" width="4" height="4"/>
<rect x="212" y="336" width="4" height="4"/>
<rect x="172" y="336" width="4" height="4"/>
<rect x="304" y="340" width="4" height="4"/>
<rect x="80" y="340" width="4" height="4"/>
<rect x="260" y="340" width="4" height="8"/>
<rect x="124" y="340" width="4" height="8"/>
<rect x="76" y="344" width="4" height="4"/>
<rect x="308" y="344" width="4" height="4"/>
<rect x="72" y="348" width="4" height="4"/>
<rect x="264" y="348" width="4" height="4"/>
<rect x="120" y="348" width="4" height="4"/>
<rect x="312" y="348" width="4" height="4"/>
<rect x="316" y="352" width="4" height="4"/>
<rect x="68" y="352" width="4" height="4"/>
<rect x="216" y="340" width="4" height="20"/>
<rect x="168" y="340" width="4" height="20"/>
<rect x="268" y="352" width="4" height="8"/>
<rect x="116" y="352" width="4" height="8"/>
<rect x="320" y="356" width="4" height="4"/>
<rect x="64" y="356" width="4" height="4"/>
<rect x="0" y="360" width="384" height="4"/>
<rect x="328" y="364" width="4" height="4"/>
<rect x="56" y="364" width="4" height="4"/>
<rect x="276" y="364" width="4" height="8"/>
<rect x="108" y="364" width="4" height="8"/>
<rect x="48" y="368" width="4" height="4"/>
<rect x="336" y="368" width="4" height="4"/>
<rect x="220" y="364" width="4" height="12"/>
<rect x="164" y="364" width="4" height="12"/>
<rect x="280" y="372" width="4" height="4"/>
<rect x="104" y="372" width="4" height="4"/>
<rect x="44" y="372" width="4" height="4"/>
<rect x="340" y="372" width="4" height="4"/>
<rect x="40" y="376" width="4" height="4"/>
<rect x="344" y="376" width="4" height="4"/>
<rect x="100" y="376" width="4" height="8"/>
<rect x="224" y="376" width="4" height="8"/>
<rect x="160" y="376" width="4" height="8"/>
<rect x="284" y="376" width="4" height="8"/>
<rect x="36" y="380" width="4" height="4"/>
<rect x="348" y="380" width="4" height="4"/>
</g>
<g fill="#5ce1e6">
<rect x="268" y="12" width="4" height="4"/>
<rect x="144" y="16" width="4" height="4"/>
<rect x="132" y="24" width="4" height="4"/>
<rect x="128" y="28" width="12" height="4"/>
<rect x="132" y="32" width="4" height="4"/>
<rect x="192" y="64" width="4" height="4"/>
<rect x="88" y="72" width="8" height="8"/>
<rect x="320" y="104" width="8" height="8"/>
<rect x="220" y="164" width="4" height="4"/>
</g>
<g fill="#ffd166">
<rect x="360" y="80" width="4" height="4"/>
<rect x="56" y="116" width="4" height="4"/>
<rect x="20" y="148" width="8" height="8"/>
<rect x="64" y="164" width="4" height="4"/>
<rect x="376" y="176" width="4" height="4"/>
<rect x="372" y="180" width="12" height="4"/>
<rect x="376" y="184" width="4" height="4"/>
</g>
<g fill="#e8e8ff">
<rect x="196" y="8" width="4" height="4"/>
<rect x="80" y="28" width="4" height="4"/>
<rect x="188" y="36" width="4" height="4"/>
<rect x="72" y="40" width="4" height="4"/>
<rect x="116" y="44" width="4" height="4"/>
<rect x="272" y="48" width="4" height="4"/>
<rect x="288" y="48" width="4" height="4"/>
<rect x="92" y="48" width="4" height="4"/>
<rect x="344" y="48" width="4" height="4"/>
<rect x="364" y="52" width="4" height="4"/>
<rect x="96" y="60" width="4" height="4"/>
<rect x="304" y="72" width="4" height="4"/>
<rect x="344" y="80" width="4" height="4"/>
<rect x="40" y="84" width="4" height="4"/>
<rect x="180" y="88" width="4" height="4"/>
<rect x="152" y="96" width="4" height="4"/>
<rect x="100" y="116" width="4" height="4"/>
<rect x="248" y="116" width="4" height="4"/>
<rect x="144" y="128" width="4" height="4"/>
<rect x="52" y="164" width="8" height="8"/>
</g>
</svg>
